# xmcd
#
# Track frame offsets:
#	150
#	21124
#	44490
#	59034
#	81806
#	107303
#	127844
#	148157
#	171170
#	195774
#	214902
#	235257
#	255425
#
# Disc length: 3756 seconds
#
# Revision: 0
# Processed by: cddbd v1.5.2PL0 Copyright (c) Steve Scherf et al.
# Submitted via: EasyCDDAExtractor 11.0.2.1
#
DISCID=ad0eaa0d
DTITLE=Cut Killer - Invasion
DYEAR=1998
DGENRE=Rap fr
TTITLE0=Dj cut killer - intro
TTITLE1=La cliqua - apocalypse
TTITLE2=Different teep - la rime urbaine
TTITLE3=Soul swing - radical
TTITLE4=N.A.P. - les vieux de la vieille
TTITLE5=Ideal j - attaque contre-attaque
TTITLE6=Monsieur r des 3 coups - r iii
TTITLE7=Double pact - la vie en face
TTITLE8=Section fu - full concept
TTITLE9=Expression direkt - j'fais pas
TTITLE10=D. abuz systemest-ce qu'ils sont
TTITLE11=Legitime processus - fifty fifty
TTITLE12=Tout simplement noir - la vie
EXTD=
EXTT0=
EXTT1=
EXTT2=
EXTT3=
EXTT4=
EXTT5=
EXTT6=
EXTT7=
EXTT8=
EXTT9=
EXTT10=
EXTT11=
EXTT12=
PLAYORDER=
